<svg xmlns:inkscape="http://www.inkscape.org/namespaces/inkscape" xmlns:sodipodi="http://sodipodi.sourceforge.net/DTD/sodipodi-0.dtd" xmlns="http://www.w3.org/2000/svg" xmlns:svg="http://www.w3.org/2000/svg" version="1.1" id="svg2"  viewBox="0 0 700 500"  sodipodi:docname="lostoasis.ai">
  <defs id="defs6">
    <clipPath clipPathUnits="userSpaceOnUse" id="clipPath16">
      <path d="M 0,841.89 H 595.276 V 0 H 0 Z" id="path14"/>
    </clipPath>
  </defs>
  <sodipodi:namedview id="namedview4" pagecolor="#ffffff" bordercolor="#000000" borderopacity="0.25" inkscape:showpageshadow="2" inkscape:pageopacity="0.0" inkscape:pagecheckerboard="0" inkscape:deskcolor="#fff"/>
  <g id="g8" inkscape:groupmode="layer" inkscape:label="lostoasis" transform="matrix(1.3333333,0,0,-1.3333333,0,1122.52)">
    <g id="g10">
      <g id="g12" clip-path="url(#clipPath16)">
                <g id="g130" transform="translate(429.4149,475.9614)">
          <path d="m 0,0 c -3.101,-5.461 -4.88,-11.407 -5.277,-17.289 -0.385,-5.872 0.716,-11.796 1.189,-18.258 0.594,-6.52 -0.348,-13.784 -2.634,-19.997 -2.78,-7.877 -6.648,-14.543 -10.23,-21.588 -10.478,-21.008 -24.305,-40.368 -37.292,-59.717 0,0 -8.673,7.46 -8.673,7.46 3.383,2.865 6.801,5.301 10.305,7.635 8.966,5.761 18.212,11.08 28.588,14.039 9.622,2.409 20.085,-0.229 28.308,5.937 6.405,4.366 12.121,11.308 19.699,14.118 -6.593,-4.951 -10.079,-12.147 -16.297,-18.243 -7.64,-7.99 -18.175,-7.989 -27.846,-10.41 -5.801,-1.785 -11.14,-4.908 -16.418,-8.068 -6.467,-4.031 -13.096,-8.611 -18.684,-13.651 0,0 -31.289,-28.619 -31.289,-28.619 15.974,25.991 36.607,57.602 52.758,82.982 3.152,5.114 6.284,10.822 9.344,15.993 3.258,5.357 6.461,10.442 8.879,15.664 2.484,5.319 3.827,10.495 4.134,16.438 C -10.95,-22.113 -10.476,-10.332 0,0" style="fill:#fff;fill-opacity:1;fill-rule:nonzero;stroke:none" id="path132"/>
        </g>
        <g id="g134" transform="translate(431.3983,419.4032)">
          <path d="m 0,0 c -6.108,-12.738 -9.627,-24.713 -9.608,-38.096 0.033,-0.116 0.091,0.124 -0.09,0.637 -0.156,0.511 -0.554,1.03 -0.934,1.328 -0.376,0.302 -0.621,0.384 -0.663,0.418 1.798,0.199 4.493,0.959 6.304,1.782 3.118,1.357 6.776,3.349 8.507,6.264 0.062,0.071 0.171,0.232 -0.006,0.843 -0.657,1.88 -2.287,4.227 -3.152,6.516 -2.254,5.631 -2.381,12.037 -0.222,17.627 2.017,5.16 4.725,8.814 5.895,13.7 l 0.778,0.056 C 7.216,6.04 5.195,1.265 4.255,-3.542 3.198,-8.253 3.803,-13.261 5.948,-17.547 c 2.39,-4.449 6.715,-8.535 3.751,-14.074 -2.456,-4.624 -7.059,-7.401 -11.653,-9.493 -4.177,-1.555 -11.794,-4.419 -14.529,0.716 -0.572,1.392 -0.418,2.775 -0.312,3.99 0.339,3.722 0.977,7.423 1.978,11.024 2.575,9.618 7.509,18.579 14.236,25.905 C -0.581,0.521 0,0 0,0" style="fill:#fff;fill-opacity:1;fill-rule:nonzero;stroke:none" id="path136"/>
        </g>
        <g id="g138" transform="translate(452.7468,480.5588)">
          <path d="m 0,0 c -8.686,-2.278 -15.104,-10.154 -14.756,-19.041 0.104,-8.738 5.704,-16.79 9.169,-24.565 7.469,-16.123 15.338,-32.51 18.784,-50.145 3.703,-26.403 -6.643,-42.104 -31.355,-51.364 -18.5,-6.462 -38.341,-5.092 -56.625,0.757 17.86,-1.038 37.017,-0.087 53.305,7.447 11.381,5.473 21.908,13.218 23.638,25.848 1.222,8.09 0.224,17.053 -2.283,25.034 -3.825,13.165 -8.812,26.011 -13.586,38.966 -3.201,9.045 -7.951,18.415 -6.536,28.383 C -19.226,-8.607 -10.187,0.101 0,0" style="fill:#fff;fill-opacity:1;fill-rule:nonzero;stroke:none" id="path140"/>
        </g>
        <g id="g142" transform="translate(456.2025,347.4958)">
          <path d="m 0,0 c -0.398,-14.635 -3.346,-28.817 -6.595,-42.951 -0.003,-0.009 -0.059,-0.303 -0.063,-0.293 0.01,0.381 -0.062,0.856 -0.247,1.22 -0.114,0.203 -0.416,0.489 -0.609,0.515 -0.061,0.021 -0.1,10e-4 -0.061,-0.012 0.384,-0.23 1.833,0.205 2.408,0.408 9.797,3.834 19.247,8.75 28.818,13.311 -7.915,-6.708 -16.519,-12.593 -25.744,-17.373 -2.328,-1.064 -4.753,-2.374 -7.561,-1.378 -1.466,0.562 -2.794,2.158 -2.589,3.825 C -10.053,-27.971 -6.325,-13.587 0,0" style="fill:#fff;fill-opacity:1;fill-rule:nonzero;stroke:none" id="path144"/>
        </g>
        <g id="g146" transform="translate(390.4857,246.8612)">
          <path d="m 0,0 c 0.224,13.414 0.504,26.92 1.809,40.284 1.271,10.451 2.438,20.758 6.354,30.768 5.777,12.895 19.535,34.076 26.686,46.53 -3.126,-27.893 -5.508,-59.733 -8.48,-87.456 -1.244,-11.022 -2.647,-23.023 -4.282,-34 0,-10e-4 -0.773,-0.032 -0.773,-0.032 -0.917,22.765 -0.055,45.549 1.055,68.291 0.409,7.58 0.887,15.158 1.586,22.731 l 1.428,-0.475 C 23.399,83.372 21.384,80.168 19.508,76.856 17.879,73.909 15.327,69.98 14.172,66.867 8.829,52.682 6.945,37.344 4.501,22.422 3.303,14.897 2.276,7.344 0.758,-0.155 Z" style="fill:#fff;fill-opacity:1;fill-rule:nonzero;stroke:none" id="path148"/>
        </g>
        <g id="g150" transform="translate(377.9212,319.0174)">
          <path d="m 0,0 c -6.109,-12.738 -9.627,-24.713 -9.608,-38.096 0.033,-0.116 0.091,0.124 -0.09,0.637 -0.156,0.511 -0.554,1.03 -0.934,1.328 -0.376,0.302 -0.621,0.384 -0.663,0.418 1.798,0.199 4.493,0.959 6.304,1.782 3.118,1.358 6.776,3.349 8.507,6.264 0.062,0.071 0.171,0.232 -0.006,0.843 -0.657,1.88 -2.287,4.227 -3.152,6.516 -2.254,5.631 -2.381,12.037 -0.222,17.627 2.017,5.16 4.725,8.814 5.895,13.7 l 0.778,0.056 C 7.216,6.04 5.195,1.266 4.255,-3.542 3.198,-8.253 3.803,-13.261 5.948,-17.547 c 2.39,-4.449 6.715,-8.535 3.751,-14.074 -2.456,-4.624 -7.059,-7.401 -11.653,-9.493 -4.177,-1.555 -11.794,-4.419 -14.529,0.716 -0.572,1.392 -0.418,2.775 -0.312,3.99 0.339,3.722 0.977,7.423 1.978,11.024 2.575,9.618 7.509,18.579 14.236,25.905 C -0.581,0.521 0,0 0,0" style="fill:#fff;fill-opacity:1;fill-rule:nonzero;stroke:none" id="path152"/>
        </g>
        <g id="g154" transform="translate(522.6697,475.3272)">
          <path d="m 0,0 c -22.672,-15.574 -31.577,-42.866 -33.083,-69.318 -1.829,-28.238 2.001,-56.499 -2.358,-84.799 -6.881,-47.205 -39.66,-90.644 -90.36,-91.547 -13.197,-0.218 -26.246,2.795 -37.618,9.364 -1.554,0.968 -3.073,1.963 -4.56,2.969 l 0.602,1.25 c 12.637,-5.941 26.964,-7.832 40.736,-6.144 44.635,4.807 71.688,44.29 77.498,86.21 4.32,27.648 1.163,56.058 5.044,84.187 3.109,24.418 13.203,49.639 34.185,63.942 2.969,1.976 6.098,3.702 9.353,5.154 z" style="fill:#fff;fill-opacity:1;fill-rule:nonzero;stroke:none" id="path156"/>
        </g>
        <g id="g158" transform="translate(465.7428,393.9337)">
          <path d="m 0,0 c 9.425,16.325 -0.959,27.359 5.325,44.002 2.203,6.241 5.266,11.519 8.104,17.103 3.853,7.836 8.44,15.388 13.122,22.7 5.332,8.367 10.953,16.503 16.421,24.607 l 6.871,-5.909 C 40.463,95.018 30.442,88.818 19.028,85.336 14.362,84.101 8.859,84.516 4.443,83.766 -5.039,82.573 -10.297,72.69 -18.999,69.445 c 5.344,4.041 8.082,9.765 12.919,14.446 2.384,2.439 5.759,4.456 9.163,5.464 4.241,1.288 8.01,1.585 11.914,2.534 7.927,2.281 14.94,7.136 21.689,11.806 5.511,3.566 26.465,23.504 31.718,28.068 C 55.772,111.244 39.536,86.32 26.771,66.283 24.274,62.232 21.792,57.71 19.369,53.613 15.605,47.356 11.844,41.746 10.048,34.906 8.236,27.833 9.497,20.603 7.539,13.131 6.196,8.076 3.563,3.483 0,0" style="fill:#fff;fill-opacity:1;fill-rule:nonzero;stroke:none" id="path160"/>
        </g>
        <g id="g162" transform="translate(471.3846,327.3458)">
          <path d="m 0,0 c -9.168,5.348 -20.86,3.463 -29.855,-1.07 -15.044,-8.324 -10.086,-17.14 1.45,-25.719 8.293,-6.146 17.95,-9.922 27.532,-13.901 5.347,-2.26 11.063,-4.559 16.034,-8.337 13.33,-10.735 4.875,-23.926 -5.134,-32.752 -5.802,-5.205 -11.842,-9.548 -18.004,-13.663 -7.664,-4.897 -17.602,-4.824 -25.141,0.253 -6.336,4.036 -10.826,9.43 -15.537,14.811 -6.375,6.943 -12.614,15.938 -22.54,15.866 -3.248,-0.091 -6.435,-1.291 -9.325,-2.858 2.441,2.338 5.416,4.356 8.975,5.253 7.278,1.889 14.725,-1.994 20.327,-6.228 8.468,-5.751 19.967,-20.18 30.163,-19.657 2.174,0.152 4.311,1.053 6.506,2.476 l -0.419,-0.278 c 2.803,2.198 5.535,4.462 8.214,6.72 4.819,4.154 10.344,8.976 13.643,14.034 0.81,1.392 1.339,2.318 1.348,3.307 -0.124,0.47 -0.608,0.954 -1.662,1.835 -3.716,2.831 -8.287,4.581 -12.848,6.72 -14.059,6.222 -28.387,13.187 -37.782,26.183 -2.68,3.668 -4.722,8.132 -4.791,12.924 -0.351,9.487 8.269,16.682 16.376,19.197 C -21.888,8.551 -8.187,8.311 0,0" style="fill:#fff;fill-opacity:1;fill-rule:nonzero;stroke:none" id="path164"/>
        </g>
        
        
        
      </g>
    </g>
  </g>
</svg>